<svg xmlns="http://www.w3.org/2000/svg" enable-background="new 0 0 24 24" viewBox="0 0 24 24" id="upwork"><path fill="#6CD441" d="M17.849,6.134c-2.339,0-4.155,1.491-4.892,3.948c-1.124-1.658-1.979-3.649-2.475-5.327h-2.52v6.43c-0.002,1.271-1.051,2.302-2.346,2.304c-1.294-0.002-2.343-1.033-2.345-2.304v-6.43H0.75v6.43c0,2.634,2.183,4.795,4.865,4.795c2.684,0,4.867-2.16,4.867-4.795v-1.076c0.487,1.001,1.089,2.015,1.819,2.912l-1.541,7.118h2.577l1.117-5.163c0.979,0.614,2.105,1.003,3.396,1.003c2.764,0,5.011-2.217,5.011-4.928C22.86,8.34,20.613,6.134,17.849,6.134z"></path><path fill="#FFF" d="M18.148,13.494c-1.015,0-1.967-0.422-2.832-1.109l0.21-0.973l0.007-0.038c0.191-1.033,0.782-2.767,2.615-2.767c1.374,0,2.49,1.096,2.49,2.444C20.638,12.398,19.522,13.494,18.148,13.494z"></path><path d="M13.558,21h-2.622c-0.224,0-0.436-0.1-0.578-0.271c-0.143-0.173-0.201-0.399-0.159-0.619l1.248-6.549c-0.139-0.155-0.263-0.306-0.375-0.453c-0.79,2.155-2.899,3.701-5.37,3.701C2.558,16.809,0,14.306,0,11.229V4.75C0,4.336,0.336,4,0.75,4h2.815c0.414,0,0.75,0.336,0.75,0.75v6.479c0.001,1.09,0.755,1.32,1.387,1.32c0.631,0,1.386-0.23,1.387-1.321V4.75C7.089,4.336,7.425,4,7.839,4h2.815c0.332,0,0.624,0.218,0.719,0.535c0.404,1.354,0.991,2.732,1.669,3.944c1.06-1.96,2.89-3.09,5.109-3.09c3.225,0,5.849,2.56,5.849,5.705c0,3.15-2.624,5.714-5.849,5.714c-1.016,0-2-0.213-2.934-0.633l-0.926,4.234C14.215,20.755,13.911,21,13.558,21z M11.842,19.5h1.112l1.008-4.611c0.052-0.238,0.216-0.436,0.441-0.53c0.224-0.097,0.48-0.075,0.688,0.053c0.959,0.596,1.989,0.897,3.06,0.897c2.398,0,4.349-1.891,4.349-4.214c0-2.318-1.951-4.205-4.349-4.205c-2.044,0-3.597,1.256-4.26,3.445c-0.083,0.276-0.318,0.479-0.604,0.523c-0.288,0.044-0.571-0.079-0.733-0.317c-0.977-1.428-1.855-3.239-2.45-5.041H8.589v5.729c-0.002,1.687-1.163,2.819-2.887,2.82c-1.725-0.001-2.884-1.134-2.887-2.819V5.5H1.5v5.729c0,2.25,1.885,4.08,4.201,4.08c2.317,0,4.203-1.83,4.203-4.08v-0.334c0-0.349,0.24-0.651,0.58-0.73c0.339-0.08,0.689,0.087,0.843,0.399c0.471,0.956,0.73,1.483,1.466,2.242c0.17,0.176,0.244,0.423,0.198,0.663L11.842,19.5z"></path><path d="M18.138,14.193c-1.072,0-2.126-0.416-3.133-1.235c-0.218-0.178-0.319-0.462-0.261-0.736l0.197-0.936c0.378-2.099,1.542-3.293,3.198-3.293c1.703,0,3.089,1.391,3.089,3.101C21.226,12.803,19.84,14.193,18.138,14.193z M16.31,12.062c0.614,0.419,1.228,0.631,1.828,0.631c0.876,0,1.589-0.718,1.59-1.601c0-0.882-0.713-1.6-1.589-1.6c-1.116,0-1.551,1.111-1.719,2.044L16.31,12.062z"></path></svg>